<svg xmlns="http://www.w3.org/2000/svg" viewBox="0 0 220 200" fill="none">
  <g stroke="#1a2340" stroke-width="1.4" stroke-linecap="round" stroke-linejoin="round">
    <!-- 目（飛び出た目） -->
    <ellipse cx="86" cy="40" rx="14" ry="14" fill="#fefdfa"/>
    <ellipse cx="124" cy="40" rx="14" ry="14" fill="#fefdfa"/>
    <circle cx="88" cy="42" r="3" fill="#1a2340" stroke="none"/>
    <circle cx="122" cy="42" r="3" fill="#1a2340" stroke="none"/>
    <!-- 頭/体（ふっくらした輪郭） -->
    <path d="M74 50 C58 60 50 80 54 110 C56 140 70 160 100 168 C140 172 170 158 178 130 C184 100 178 70 156 56 C140 48 130 52 124 56" fill="#fefdfa"/>
    <!-- 口 -->
    <path d="M82 78 C100 88 130 88 154 76" stroke-width="1.4"/>
    <path d="M82 78 L80 82 M154 76 L156 80" stroke-width="0.9"/>
    <!-- 鼻孔 -->
    <circle cx="100" cy="62" r="0.9" fill="#1a2340" stroke="none"/>
    <circle cx="116" cy="62" r="0.9" fill="#1a2340" stroke="none"/>
    <!-- お腹のライン -->
    <path d="M64 110 C90 140 140 142 174 116" stroke-width="0.8"/>
    <!-- 斑点 -->
    <ellipse cx="72" cy="100" rx="3" ry="2.5" fill="#1a2340" stroke="none" opacity="0.7"/>
    <ellipse cx="160" cy="86" rx="2.5" ry="2" fill="#1a2340" stroke="none" opacity="0.7"/>
    <ellipse cx="170" cy="120" rx="2" ry="2.5" fill="#1a2340" stroke="none" opacity="0.7"/>
    <ellipse cx="60" cy="130" rx="2.2" ry="2" fill="#1a2340" stroke="none" opacity="0.7"/>
    <!-- 後ろ脚 -->
    <path d="M54 130 C42 138 36 152 40 168 C44 180 60 184 76 178" fill="#fefdfa"/>
    <path d="M40 168 C30 172 28 178 36 180 L46 180" />
    <path d="M44 174 L40 178 M52 176 L48 180" stroke-width="0.9"/>
    <path d="M178 130 C190 138 196 152 192 168 C188 180 172 184 156 178" fill="#fefdfa"/>
    <path d="M192 168 C202 172 204 178 196 180 L186 180" />
    <path d="M188 174 L192 178 M180 176 L184 180" stroke-width="0.9"/>
    <!-- 前足（巻物を持つ手） -->
    <path d="M88 150 C82 160 80 168 86 174 L100 176" fill="#fefdfa"/>
    <path d="M86 174 L82 176 M90 176 L86 178 M94 176 L90 180" stroke-width="0.9"/>
    <!-- 巻物 -->
    <path d="M104 130 L168 130 L168 160 L104 160 Z" fill="#fefdfa"/>
    <path d="M104 130 C102 132 102 158 104 160" stroke-width="1.4"/>
    <path d="M168 130 C170 132 170 158 168 160" stroke-width="1.4"/>
    <!-- 巻物の文字風 -->
    <path d="M114 138 L114 154 M122 138 L122 154 M130 138 L130 154 M138 138 L138 154 M146 138 L146 154 M154 138 L154 154" stroke-width="0.7" opacity="0.6"/>
    <path d="M112 142 L116 142 M120 144 L124 144 M128 142 L132 142 M136 146 L140 146 M144 142 L148 142 M152 144 L156 144" stroke-width="0.6" opacity="0.6"/>
    <!-- 反対の手 -->
    <path d="M170 150 C176 156 178 162 174 168 L168 170" fill="#fefdfa"/>
    <!-- 草 -->
    <path d="M30 188 L32 184 L34 188 M196 188 L198 184 L200 188" stroke-width="0.9"/>
  </g>
</svg>
